<svg width="20" height="20" viewBox="0 0 20 20" fill="none" xmlns="http://www.w3.org/2000/svg">
<circle cx="10" cy="9.70874" r="9.70874" fill="#151875"/>
<path d="M14.2446 7.40715C14.2394 7.01499 14.166 6.62671 14.0277 6.25971C13.9077 5.95015 13.7245 5.669 13.4898 5.43425C13.255 5.1995 12.9739 5.01629 12.6643 4.89635C12.302 4.76035 11.9193 4.68681 11.5324 4.67887C11.0343 4.6566 10.8763 4.65039 9.61188 4.65039C8.34742 4.65039 8.18534 4.65039 7.69085 4.67887C7.30413 4.68687 6.92158 4.76041 6.55945 4.89635C6.24984 5.01621 5.96866 5.19938 5.73389 5.43415C5.49913 5.66891 5.31595 5.9501 5.19609 6.25971C5.05982 6.62172 4.98644 7.00436 4.97913 7.3911C4.95687 7.88974 4.95013 8.04767 4.95013 9.31214C4.95013 10.5766 4.95013 10.7382 4.97913 11.2332C4.9869 11.6205 5.05991 12.0026 5.19609 12.3656C5.31616 12.6751 5.49947 12.9562 5.73431 13.1909C5.96915 13.4255 6.25036 13.6086 6.55997 13.7284C6.9211 13.8699 7.30373 13.9487 7.69136 13.9615C8.19 13.9837 8.34793 13.9905 9.6124 13.9905C10.8769 13.9905 11.0389 13.9905 11.5334 13.9615C11.9203 13.9538 12.3031 13.8805 12.6653 13.7445C12.9748 13.6244 13.2559 13.4412 13.4906 13.2064C13.7254 12.9717 13.9086 12.6906 14.0287 12.3811C14.1649 12.0187 14.2379 11.6365 14.2457 11.2487C14.2679 10.7506 14.2747 10.5927 14.2747 9.32767C14.2736 8.06321 14.2736 7.90269 14.2446 7.40715ZM9.60878 11.7033C8.28632 11.7033 7.21499 10.632 7.21499 9.30955C7.21499 7.98709 8.28632 6.91576 9.60878 6.91576C10.2436 6.91576 10.8525 7.16796 11.3014 7.61689C11.7504 8.06581 12.0026 8.67468 12.0026 9.30955C12.0026 9.94442 11.7504 10.5533 11.3014 11.0022C10.8525 11.4511 10.2436 11.7033 9.60878 11.7033ZM12.0978 7.38541C11.7887 7.38541 11.5396 7.13583 11.5396 6.82722C11.5396 6.75395 11.5541 6.6814 11.5821 6.61371C11.6102 6.54602 11.6513 6.48451 11.7031 6.4327C11.7549 6.3809 11.8164 6.3398 11.8841 6.31176C11.9518 6.28372 12.0243 6.26929 12.0976 6.26929C12.1708 6.26929 12.2434 6.28372 12.3111 6.31176C12.3788 6.3398 12.4403 6.3809 12.4921 6.4327C12.5439 6.48451 12.585 6.54602 12.613 6.61371C12.6411 6.6814 12.6555 6.75395 12.6555 6.82722C12.6555 7.13583 12.4059 7.38541 12.0978 7.38541Z" fill="white"/>
<path d="M9.60878 10.8643C10.4676 10.8643 11.1637 10.1681 11.1637 9.30935C11.1637 8.45057 10.4676 7.75439 9.60878 7.75439C8.75001 7.75439 8.05383 8.45057 8.05383 9.30935C8.05383 10.1681 8.75001 10.8643 9.60878 10.8643Z" fill="white"/>
</svg>
